<svg width="103" height="98" viewBox="0 0 103 98" fill="none" xmlns="http://www.w3.org/2000/svg">
<path d="M16.7892 23.8597C19.4612 23.4125 22.1264 22.9904 24.8003 22.5757C26.4406 22.3303 28.0975 22.2387 29.7132 21.6933C30.1534 21.5498 30.5689 21.1064 31.0508 21.2777L31.0423 21.2703C31.5149 21.1241 31.9745 20.8891 32.4525 20.8404C34.2586 20.6463 36.1161 20.2029 37.8689 20.2256C37.9424 20.2275 38.0249 20.098 38.1222 20.0898C38.6002 20.041 40.3066 19.9615 41.3973 19.7955C43.9099 19.4108 46.4277 19.1236 49.0228 19.6462C49.4268 19.7344 55.02 19.8148 55.2279 22.4096C55.4498 25.1094 50.2267 26.5732 49.5334 26.5585C47.8522 26.5053 46.1266 26.0884 44.5257 26.755C42.176 27.7299 39.7272 27.6439 37.3394 28.0751C35.1855 28.462 33.0087 28.5815 30.8556 28.9846C28.84 29.368 26.8571 30.1976 24.8163 30.4198C23.0588 30.6097 21.2494 30.151 19.4718 30.1223C19.056 30.1168 18.6049 30.653 18.1413 30.6679C17.7588 30.6759 17.1349 30.737 16.7417 30.5499C16.5742 30.4662 16.3895 30.3676 16.2489 30.4775C15.5689 31.0005 9.68058 31.0349 9.44227 27.8876C9.18365 24.8155 14.4722 24.2441 16.7892 23.8597Z" fill="#5260DD"/>
<path d="M45.8909 51.3104C47.61 50.1277 49.3462 48.9598 51.0833 47.8082C52.1521 47.0971 53.3025 46.5341 54.2196 45.5827C54.4743 45.3244 54.5763 44.8096 54.9921 44.8151C55.2706 44.5465 55.496 44.2008 55.82 44.0182C57.028 43.3197 58.1731 42.3653 59.4414 41.874C59.4892 41.8536 59.4897 41.7148 59.5614 41.6842C59.8853 41.5016 61.0758 40.9271 61.7832 40.4588C63.4266 39.3805 65.0983 38.3733 67.1842 38.0819C67.5077 38.0381 71.56 36.4696 72.8394 38.6959C74.1727 41.0156 71.0541 43.86 70.5517 44.0578C69.3303 44.5125 67.904 44.6499 67.0417 45.7109C65.7752 47.2715 63.9856 47.9133 62.449 49.007C61.0692 49.9895 59.5539 50.7304 58.1912 51.7277C56.9069 52.6695 55.8463 53.9759 54.4806 54.7694C53.3041 55.4489 51.8043 55.5843 50.5198 56.0771C50.217 56.2007 50.128 56.8042 49.8023 56.9544C49.5319 57.0753 49.1048 57.3075 48.752 57.2639C48.6043 57.2438 48.4232 57.2102 48.3655 57.3457C48.1008 58.0131 43.8884 59.783 42.362 57.0634C40.8468 54.3999 44.3993 52.335 45.8909 51.3104Z" fill="#5260DD"/>
<path d="M69.2542 87.5297C70.6838 84.9347 72.139 82.362 73.602 79.7805C74.5005 78.194 75.5426 76.7013 76.1889 74.9729C76.3585 74.5013 76.2998 73.8777 76.7549 73.5615L76.7472 73.5703C76.9398 73.0723 77.0734 72.5385 77.3421 72.0911C78.3983 70.4095 79.2798 68.5142 80.4756 67.0003C80.5215 66.9475 80.4725 66.7965 80.532 66.6935C80.8169 66.2448 81.8974 64.7081 82.4915 63.6617C83.8738 61.2421 85.3236 58.8659 87.4728 56.9119C87.8144 56.6053 91.6221 51.7757 93.8136 53.1082C96.0974 54.49 93.7724 59.9122 93.2838 60.5088C92.1246 61.9461 90.6379 63.207 90.0848 65.001C89.276 67.6249 87.5821 69.7117 86.3099 72.0566C85.171 74.1615 83.8134 76.1381 82.6916 78.258C81.6439 80.2409 80.9757 82.461 79.7852 84.3663C78.7596 86.0126 77.1783 87.3306 75.9672 88.8621C75.6855 89.2207 75.7983 89.9377 75.5107 90.3377C75.2682 90.6685 74.8931 91.2555 74.4822 91.4863C74.3083 91.5827 74.1019 91.6818 74.0964 91.8782C74.0568 92.7877 70.1448 97.9446 67.489 96.3168C64.9332 94.7295 68.0175 89.7817 69.2542 87.5297Z" fill="#5260DD"/>
</svg>
