<svg width="71" height="90" viewBox="0 0 71 90" fill="none" xmlns="http://www.w3.org/2000/svg">
<path d="M7.19262 20.6502C8.59499 19.2556 10.0242 17.8693 11.4488 16.4963C12.3297 15.6527 13.2995 14.9172 14.0066 13.8878C14.2003 13.6027 14.2247 13.1405 14.601 13.0585L14.592 13.0631C14.8036 12.7688 14.9663 12.4227 15.2358 12.1976C16.242 11.334 17.1507 10.2567 18.2412 9.55848C18.2816 9.52692 18.2687 9.41286 18.3226 9.36345C18.5921 9.13839 19.6068 8.38007 20.1821 7.82372C21.5258 6.5358 22.9185 5.29971 24.7923 4.5863C25.0836 4.47073 28.5661 2.23564 30.0536 3.8688C31.6034 5.5799 29.1642 8.70932 28.7244 8.97725C27.6699 9.63522 26.3881 10.0689 25.7523 11.1717C24.8143 12.7903 23.2752 13.739 22.0255 15.0119C20.9017 16.1549 19.6265 17.1337 18.5205 18.2895C17.482 19.378 16.6973 20.7431 15.5608 21.728C14.5815 22.5779 13.2236 23.0175 12.1151 23.7249C11.8503 23.8927 11.8569 24.4378 11.5831 24.6322C11.3586 24.7904 11.0037 25.0919 10.6634 25.1337C10.5157 25.1541 10.359 25.1571 10.3271 25.2941C10.1856 25.9255 6.57683 28.3785 4.78667 26.3731C3.02314 24.4199 5.97902 21.8609 7.19262 20.6502Z" fill="#5260DD"/>
<path d="M25.7617 43.4583C27.2287 42.634 28.6956 41.8318 30.1759 41.0337C31.082 40.5501 32.0502 40.1883 32.8499 39.4738C33.0656 39.2761 33.1793 38.8562 33.5237 38.9111C33.7617 38.713 33.9643 38.4453 34.2333 38.3302C35.2601 37.8618 36.2342 37.179 37.2961 36.8902C37.3364 36.8807 37.3459 36.7662 37.3997 36.7387C37.6777 36.619 38.6773 36.2523 39.2828 35.9328C40.6778 35.1891 42.0949 34.5109 43.8136 34.4688C44.0821 34.4636 47.4648 33.5407 48.4182 35.5448C49.407 37.6185 46.7262 39.6973 46.3095 39.8109C45.2881 40.0682 44.1112 40.0426 43.3603 40.853C42.2543 42.0307 40.758 42.3983 39.4523 43.1622C38.2768 43.8489 37.0038 44.3221 35.8462 45.0216C34.7559 45.6759 33.8206 46.6789 32.6682 47.2112C31.6682 47.6659 30.4378 47.6238 29.358 47.9217C29.0981 47.9883 29.0064 48.4957 28.733 48.5801C28.509 48.6504 28.1502 48.8113 27.8642 48.7377C27.7345 48.705 27.596 48.6549 27.5418 48.7703C27.2934 49.3027 23.7712 50.3734 22.6318 47.9377C21.4877 45.5592 24.4877 44.1733 25.7617 43.4583Z" fill="#5260DD"/>
<path d="M39.8864 73.4785C41.9558 73.0383 44.0341 72.6155 46.1079 72.206C47.3799 71.9527 48.6736 71.8529 49.9065 71.3454C50.2428 71.207 50.5443 70.823 50.9286 70.9563L50.9196 70.9608C51.2782 70.822 51.6282 70.6217 52.0043 70.5617C53.4059 70.3631 54.8488 69.935 56.2182 69.9173C56.272 69.9118 56.3306 69.8051 56.4067 69.7993C56.7783 69.7525 58.1124 69.6431 58.9634 69.4728C60.9162 69.092 62.8732 68.7858 64.9345 69.1724C65.2565 69.2277 69.6422 69.1867 69.9458 71.3792C70.2535 73.6684 66.2378 75.0344 65.6919 75.0274C64.3717 75.031 62.9992 74.7103 61.7749 75.3012C59.9765 76.1846 58.0568 76.1647 56.2023 76.5831C54.5314 76.9628 52.8303 77.1057 51.1683 77.5028C49.6048 77.8717 48.0889 78.6221 46.5037 78.8595C45.1379 79.0618 43.694 78.7117 42.2977 78.7211C41.971 78.7231 41.6423 79.1867 41.2842 79.2156C40.9887 79.2345 40.5007 79.2968 40.1881 79.1489C40.0541 79.0856 39.9113 79.0048 39.7945 79.1082C39.2867 79.5753 34.6677 79.7351 34.3215 77.0598C33.9704 74.4637 38.0946 73.865 39.8864 73.4785Z" fill="#5260DD"/>
</svg>
