<svg width="29" height="29" viewBox="0 0 29 29" fill="none" xmlns="http://www.w3.org/2000/svg">
<path d="M14.1378 3.38913C14.2521 3.33923 14.3755 3.31348 14.5003 3.31348C14.625 3.31348 14.7484 3.33923 14.8628 3.38913C19.3312 5.34229 23.5936 7.73659 27.5865 10.5364C27.7272 10.6351 27.837 10.7718 27.903 10.9305C27.9689 11.0892 27.9884 11.2633 27.9592 11.4327C27.9299 11.6021 27.8531 11.7596 27.7377 11.887C27.6223 12.0143 27.473 12.1062 27.3074 12.152C23.1621 13.2969 19.151 14.8815 15.3425 16.879L15.3388 16.8814C15.2011 16.9539 15.0645 17.0252 14.928 17.0989C14.7966 17.1691 14.6499 17.2059 14.5009 17.2059C14.3518 17.2059 14.2051 17.1691 14.0737 17.0989C12.4402 16.2271 10.7682 15.4296 9.06275 14.7088V14.4381C9.06275 14.2798 9.14371 14.1385 9.27059 14.0623C11.0944 12.9571 12.9707 11.9409 14.893 11.0173C15.1096 10.9132 15.276 10.7272 15.3555 10.5004C15.4351 10.2736 15.4212 10.0244 15.3171 9.8078C15.2129 9.59116 15.027 9.42477 14.8002 9.34523C14.5733 9.2657 14.3242 9.27952 14.1075 9.38368C12.1329 10.3326 10.2053 11.3766 8.33171 12.5121C8.06515 12.6738 7.8352 12.8892 7.65649 13.1447C7.47779 13.4002 7.35425 13.69 7.29375 13.9959C5.45855 13.2897 3.58983 12.6739 1.69433 12.1508C1.52867 12.105 1.37942 12.0131 1.26401 11.8857C1.1486 11.7584 1.07179 11.6009 1.04253 11.4315C1.01327 11.2621 1.03277 11.0879 1.09876 10.9293C1.16474 10.7706 1.2745 10.6339 1.41521 10.5352C5.40777 7.73589 9.66974 5.342 14.1378 3.38913Z" fill="#5260DD"/>
<path d="M15.7816 18.6965C18.7496 17.1108 21.8487 15.7839 25.0447 14.7307C25.2066 16.4393 25.3105 18.166 25.3528 19.9072C25.3575 20.0897 25.3069 20.2694 25.2077 20.4227C25.1085 20.576 24.9654 20.6958 24.7969 20.7663C21.3716 22.1969 18.092 23.9539 15.0034 26.0129C14.8545 26.1121 14.6796 26.1651 14.5007 26.1651C14.3218 26.1651 14.1469 26.1121 13.9981 26.0129C10.9098 23.9539 7.63062 22.197 4.20574 20.7663C4.03729 20.696 3.894 20.5765 3.7946 20.4235C3.69521 20.2704 3.64436 20.0909 3.64869 19.9084C3.69099 18.166 3.7949 16.4405 3.95682 14.7295C5.06969 15.0968 6.16807 15.4956 7.25074 15.9257V17.4603C6.98966 17.6107 6.7702 17.8239 6.61221 18.0805C6.45422 18.337 6.36269 18.6289 6.3459 18.9298C6.3291 19.2306 6.38758 19.5309 6.51603 19.8035C6.64448 20.076 6.83885 20.3123 7.08157 20.4908C6.97282 20.95 6.81332 21.4007 6.60186 21.8321C7.14803 22.0895 7.69057 22.3565 8.22828 22.6296C8.53137 22.013 8.75509 21.3606 8.89407 20.6878C9.19964 20.5519 9.46166 20.3342 9.65115 20.0586C9.84063 19.7831 9.95019 19.4605 9.96771 19.1265C9.98522 18.7926 9.91 18.4603 9.75037 18.1664C9.59074 17.8726 9.35292 17.6286 9.06324 17.4615V16.6822C10.4747 17.2988 11.8613 17.9707 13.2199 18.6965C13.614 18.9069 14.0539 19.0171 14.5007 19.0171C14.9475 19.0171 15.3875 18.9069 15.7816 18.6965Z" fill="#5260DD"/>
<path d="M5.39241 23.5167C5.89991 23.0104 6.30228 22.4413 6.60074 21.8311C7.14812 22.0896 7.69066 22.3567 8.22837 22.631C7.833 23.434 7.308 24.1664 6.67445 24.7987C6.50266 24.9588 6.27543 25.046 6.04065 25.0418C5.80587 25.0377 5.58187 24.9426 5.41582 24.7765C5.24978 24.6105 5.15467 24.3865 5.15053 24.1517C5.14639 23.9169 5.23354 23.6897 5.39362 23.5179L5.39241 23.5167Z" fill="#5260DD"/>
</svg>
