<svg width="57" height="62" viewBox="0 0 57 62" fill="none" xmlns="http://www.w3.org/2000/svg">
<path d="M51 30.1033L54 30.1174V30.1033C54 27.4524 53.7967 24.6825 52.8101 21.9983C51.7988 19.2469 50.0326 16.7635 47.1897 14.5648C43.954 12.0623 39.9273 11.6986 37.0748 11.5993C36.3174 11.5729 35.7067 11.5652 35.1643 11.5584C34.513 11.5503 33.9602 11.5433 33.3702 11.5067C33.2853 11.5014 33.2063 11.4957 33.1328 11.4897C33.1409 11.4557 33.1496 11.4196 33.1588 11.3815C33.3792 10.4666 33.878 8.39728 33.0347 6.35578L30.3008 7.4851L33.0347 6.35578C32.3324 4.65581 30.8894 3.77969 29.5239 3.41862C28.2305 3.07662 26.8237 3.12667 25.5199 3.32905C22.8803 3.73876 19.7579 4.92032 16.6891 6.55512C10.647 9.77386 3.52619 16.1945 3.0291 27.9528C2.96626 29.4393 3.01555 30.8948 3.07992 32.2609C3.19259 34.6522 3.50256 38.8294 4.37041 42.9575C4.80445 45.0221 5.39351 47.1508 6.2056 49.071C7.0048 50.9607 8.10452 52.8525 9.66848 54.2403C12.5109 56.7625 16.2551 58.2985 20.3511 58.2985H36.6629C40.7589 58.2985 44.5032 56.7625 47.3456 54.2403C49.3094 52.4976 50.5685 49.9333 51.4197 47.4728C52.2938 44.9461 52.8597 42.1628 53.2323 39.6351C53.6069 37.0933 53.7979 34.726 53.8958 32.9993C53.9448 32.1334 53.9708 31.4226 53.9846 30.9241C53.9914 30.6747 53.9953 30.4781 53.9974 30.3414C53.9984 30.273 53.9991 30.2195 53.9995 30.1819L53.9998 30.1375L53.9999 30.1243L54 30.1201L54 30.1185C54 30.1179 54 30.1174 51 30.1033ZM32.3581 11.3727C32.3583 11.3726 32.3632 11.3741 32.3721 11.3777C32.3624 11.3746 32.3579 11.3728 32.3581 11.3727Z" fill="url(#paint0_linear_48_8043)" stroke="#5260DD" stroke-width="6"/>
<mask id="mask0_48_8043" style="mask-type:alpha" maskUnits="userSpaceOnUse" x="6" y="6" width="45" height="50">
<path d="M51 30.1035C51 25.0566 50.2 20.6857 45.3544 16.9382C40.5087 13.1906 32.7033 15.4616 30.7731 13.8875C28.8429 12.3135 31.7662 9.65999 30.7731 7.25577C29.7799 4.85155 23.8907 6.11815 18.0996 9.20316C12.6532 12.1046 6.46433 17.7214 6.02642 28.0798C5.96947 29.4271 6.01313 30.773 6.0766 32.12C6.29534 36.7627 7.27585 48.1066 11.6597 51.9967C13.9756 54.0517 17.0184 55.2988 20.3511 55.2988H36.6629C39.9956 55.2988 43.0385 54.0517 45.3544 51.9966C50.9201 47.0577 51 30.1035 51 30.1035Z" fill="#5260DD"/>
</mask>
<g mask="url(#mask0_48_8043)">
<path d="M51.622 31.8465C51.622 27.1391 52.3992 23.1695 46.8144 18.184C41.2296 13.1984 31.164 18.0898 28.8223 16.2392C26.4806 14.3885 28.303 12.3018 26.9766 10.3411C25.6503 8.38042 22.5145 7.98287 16.9408 10.8604C11.6987 13.5666 5.73108 20.1917 5.30961 29.8533C5.25479 31.1099 5.29682 32.3653 5.3579 33.6217C5.56844 37.9521 6.51214 48.5329 10.7314 52.1613C12.9604 54.0781 15.889 55.2413 19.0966 55.2413H34.796C38.0037 55.2413 42.7257 55.3153 44.9546 53.3985C50.3115 48.7918 51.622 31.8465 51.622 31.8465Z" fill="#EEEFFC"/>
<path d="M23.8048 21.4694C28.8228 21.4605 37.6325 16.2844 42.5242 20.2232C32.3828 21.4542 23.3813 28.4665 17.4942 28.0917C11.6072 27.7168 10.1235 27.7141 10.1304 23.9712C10.1373 20.2284 12.9944 18.9787 15.762 19.5595C18.5297 20.1402 18.7867 21.4782 23.8048 21.4694Z" fill="url(#paint1_linear_48_8043)"/>
</g>
<path fill-rule="evenodd" clip-rule="evenodd" d="M46.022 22.2198C47.7832 24.2336 48.5037 25.797 48.5037 30.2987C48.5037 30.2987 48.4335 45.4215 43.5378 49.8269C41.5006 51.6599 38.8241 52.7723 35.8926 52.7723H21.5446C18.6131 52.7723 15.9366 51.6599 13.8995 49.8269C10.0434 46.357 9.2791 36.8422 9.03816 32.426C8.79723 28.0097 9.43636 23.4145 10.7973 21.2641C11.0299 20.8966 11.0205 20.9615 10.975 21.2751C10.8518 22.1243 10.4641 24.7965 13.8995 25.6444C18.6036 26.8056 25.2875 23.8141 27.3689 22.6984C27.8008 22.4669 28.2671 22.1875 28.7707 21.8857C30.6945 20.7328 33.1629 19.2536 36.3352 18.8748C40.338 18.3969 44.2607 20.206 46.022 22.2198ZM23.8283 33.0621C24.7622 33.0621 25.5193 32.305 25.5193 31.3711C25.5193 30.4373 24.7622 29.6802 23.8283 29.6802C22.8945 29.6802 22.1374 30.4373 22.1374 31.3711C22.1374 32.305 22.8945 33.0621 23.8283 33.0621ZM35.2933 31.3143C35.2933 32.2481 34.5363 33.0052 33.6024 33.0052C32.6685 33.0052 31.9115 32.2481 31.9115 31.3143C31.9115 30.3804 32.6685 29.6233 33.6024 29.6233C34.5363 29.6233 35.2933 30.3804 35.2933 31.3143ZM33.8159 36.32C33.8443 35.4921 33.1962 34.7978 32.3683 34.7693C31.5404 34.7409 30.8461 35.389 30.8176 36.2169C30.7677 37.6705 30.3545 38.5532 29.9271 39.0391C29.5088 39.5148 29.0182 39.6874 28.5672 39.6682C27.7376 39.633 26.3669 38.792 26.3669 36.2684C26.3669 35.44 25.6954 34.7684 24.8669 34.7684C24.0385 34.7684 23.3669 35.44 23.3669 36.2684C23.3669 39.9651 25.6035 42.5452 28.4401 42.6655C29.8221 42.7241 31.1793 42.158 32.1798 41.0203C33.1714 39.8929 33.7482 38.2875 33.8159 36.32Z" fill="#5260DD"/>
<defs>
<linearGradient id="paint0_linear_48_8043" x1="1.03887" y1="-1.74002" x2="41.2067" y2="39.8582" gradientUnits="userSpaceOnUse">
<stop stop-color="#CCE0FF"/>
<stop offset="1" stop-color="#5855D4"/>
<stop offset="1" stop-color="#A5A3FF" stop-opacity="0"/>
</linearGradient>
<linearGradient id="paint1_linear_48_8043" x1="24.5674" y1="18.9577" x2="26.2903" y2="30.6427" gradientUnits="userSpaceOnUse">
<stop stop-color="#8B94E8"/>
<stop offset="1" stop-color="#8B94E8" stop-opacity="0"/>
</linearGradient>
</defs>
</svg>
